<svg width="858" height="517" viewBox="0 0 858 517" fill="none" xmlns="http://www.w3.org/2000/svg">
<g opacity="0.4">
<mask id="mask0_848_2470" style="mask-type:alpha" maskUnits="userSpaceOnUse" x="4" y="0" width="850" height="509">
<rect x="4" width="850" height="509" rx="10" fill="white"/>
</mask>
<g mask="url(#mask0_848_2470)">
<path fill-rule="evenodd" clip-rule="evenodd" d="M948.242 426.112C948.242 407.099 932.837 391.686 913.826 391.686C894.815 391.686 879.41 407.099 879.41 426.112C879.41 445.125 894.815 460.538 913.826 460.538C932.837 460.538 948.242 445.125 948.242 426.112ZM913.826 350.375C955.648 350.375 989.541 384.283 989.541 426.112C989.541 467.941 955.648 501.849 913.826 501.849C872.004 501.849 838.111 467.941 838.111 426.112C838.111 384.283 872.004 350.375 913.826 350.375Z" fill="#FD6234"/>
<path fill-rule="evenodd" clip-rule="evenodd" d="M34.8881 61.7728C48.3282 48.3654 48.3282 26.6276 34.8881 13.2202C21.448 -0.187165 -0.342819 -0.187165 -13.7829 13.2202C-27.223 26.6276 -27.223 48.3654 -13.7829 61.7728C-5.71859 69.8172 -5.71859 82.8604 -13.7829 90.9036C-21.8473 98.9482 -34.9226 98.9482 -42.9855 90.9036C-72.5543 61.4079 -72.5543 13.5851 -42.9855 -15.9113C-13.4181 -45.4075 34.5219 -45.4075 64.0907 -15.9113C93.6595 13.5851 93.6595 61.4079 64.0907 90.9036C56.0263 98.9482 42.9524 98.9482 34.8881 90.9036C26.8237 82.8604 26.8237 69.8172 34.8881 61.7728Z" fill="#463C74"/>
<path fill-rule="evenodd" clip-rule="evenodd" d="M274.188 0.358192C198.108 0.358192 136.432 62.0513 136.432 138.154C136.432 149.569 127.18 158.823 115.769 158.823C104.357 158.823 95.1055 149.569 95.1055 138.154C95.1055 39.2207 175.283 -40.9805 274.188 -40.9805C285.599 -40.9805 294.851 -31.7265 294.851 -20.3111C294.851 -8.89574 285.599 0.358192 274.188 0.358192Z" fill="#EDD500"/>
<path fill-rule="evenodd" clip-rule="evenodd" d="M470.984 127.564C470.984 57.6144 414.296 0.909275 344.367 0.909275C332.966 0.909275 323.723 -8.33609 323.723 -19.7409C323.723 -31.1457 332.966 -40.3911 344.367 -40.3911C437.099 -40.3911 512.273 34.8049 512.273 127.564C512.273 138.968 503.03 148.214 491.629 148.214C480.228 148.214 470.984 138.968 470.984 127.564Z" fill="#B4D51E"/>
<path fill-rule="evenodd" clip-rule="evenodd" d="M40.3086 197.723C40.3086 209.115 49.5541 218.352 60.9613 218.352C79.9715 218.352 95.3826 233.745 95.3826 252.733V390.257C95.3826 409.245 79.9715 424.638 60.9613 424.638C49.5541 424.638 40.3086 433.875 40.3086 445.267C40.3086 456.66 49.5541 465.896 60.9613 465.896C82.6605 465.896 102.228 456.779 116.035 442.171C129.841 456.779 149.41 465.896 171.109 465.896H234.444C276.268 465.896 310.171 432.032 310.171 390.257C310.171 378.865 300.924 369.629 289.518 369.629C278.112 369.629 268.866 378.865 268.866 390.257C268.866 409.245 253.454 424.638 234.444 424.638H171.109C152.099 424.638 136.688 409.245 136.688 390.257V252.733C136.688 210.958 102.783 177.094 60.9613 177.094C49.5541 177.094 40.3086 186.33 40.3086 197.723Z" fill="#4A990C"/>
<path d="M81.5539 445.399C81.5539 434.001 72.3088 424.76 60.9052 424.76C41.8987 424.76 26.4906 409.36 26.4906 390.362V252.77C26.4906 233.773 41.8987 218.372 60.9052 218.372C72.3088 218.372 81.5539 209.131 81.5539 197.733C81.5539 186.335 72.3088 177.094 60.9052 177.094C19.0901 177.094 -14.8069 210.975 -14.8069 252.77V390.362C-14.8069 392.056 -14.7519 393.736 -14.6417 395.401C-49.0081 405.917 -74 437.876 -74 475.67V555.473C-74 566.871 -64.7549 576.112 -53.3513 576.112C-41.9476 576.112 -32.7025 566.871 -32.7025 555.473V475.67C-32.7025 455.797 -19.1046 439.097 -0.702454 434.362C13.0331 453.539 35.5086 466.038 60.9052 466.038C72.3088 466.038 81.5539 456.797 81.5539 445.399Z" fill="#E5E0D5"/>
<path fill-rule="evenodd" clip-rule="evenodd" d="M60.6366 465.95C41.628 465.95 26.2208 481.363 26.2208 500.375C26.2208 519.388 41.628 534.801 60.6366 534.801C79.6437 534.801 95.0523 519.388 95.0523 500.375C95.0523 488.968 104.296 479.72 115.702 479.72C127.106 479.72 136.351 488.968 136.351 500.375C136.351 542.204 102.452 576.112 60.6366 576.112C18.82 576.112 -15.0781 542.204 -15.0781 500.375C-15.0781 458.547 18.82 424.639 60.6366 424.639C72.0406 424.639 81.286 433.887 81.286 445.294C81.286 456.701 72.0406 465.95 60.6366 465.95Z" fill="#463C74"/>
<path fill-rule="evenodd" clip-rule="evenodd" d="M60.9313 465.896C49.5407 465.896 40.3086 456.66 40.3086 445.267C40.3086 433.875 49.5407 424.639 60.9313 424.639C72.3205 424.639 81.5539 433.875 81.5539 445.267C81.5539 456.66 72.3205 465.896 60.9313 465.896Z" fill="#FD6234"/>
<path fill-rule="evenodd" clip-rule="evenodd" d="M813.781 427.339C813.781 469.141 779.878 503.027 738.055 503.027H600.372C558.55 503.027 524.646 469.141 524.646 427.339C524.646 385.536 558.55 351.65 600.372 351.65H644.431V308.301C644.431 266.5 678.334 232.612 720.156 232.612H857.839C876.853 232.612 892.26 217.209 892.26 198.208V134.905C892.26 115.904 876.853 100.501 857.839 100.501C846.439 100.501 837.187 91.2586 837.187 79.8585C837.187 68.4579 846.439 59.2161 857.839 59.2161C899.667 59.2161 933.565 93.1026 933.565 134.905V198.208C933.565 219.896 924.436 239.456 909.814 253.255C924.436 267.055 933.565 286.613 933.565 308.301V370.228C933.565 381.628 924.312 390.87 912.912 390.87C901.512 390.87 892.26 381.628 892.26 370.228V308.301C892.26 289.3 876.853 273.897 857.839 273.897H720.156C701.146 273.897 685.735 289.3 685.735 308.301V351.65H738.055C779.878 351.65 813.781 385.536 813.781 427.339ZM600.372 392.935C581.362 392.935 565.951 408.338 565.951 427.339C565.951 446.339 581.362 461.743 600.372 461.743H738.055C757.065 461.743 772.476 446.339 772.476 427.339C772.476 408.338 757.065 392.935 738.055 392.935H600.372Z" fill="#B4D51E"/>
<path fill-rule="evenodd" clip-rule="evenodd" d="M504.704 229.109C528.191 238.661 554.789 227.456 564.228 204.347C573.665 181.237 562.493 154.669 539.006 145.117C526.03 139.84 512.101 140.886 500.591 146.826C490.457 152.057 477.994 148.099 472.753 137.987C467.511 127.876 471.478 115.439 481.61 110.209C503.437 98.9425 529.99 96.9306 554.598 106.939C599.044 125.015 620.603 175.543 602.485 219.906C584.366 264.27 533.557 285.363 489.111 267.288C478.548 262.991 473.473 250.961 477.779 240.419C482.084 229.876 494.139 224.813 504.704 229.109Z" fill="#EDD500"/>
<path fill-rule="evenodd" clip-rule="evenodd" d="M813.364 431.711C813.364 484.119 855.833 526.603 908.229 526.603C919.613 526.603 928.851 535.839 928.851 547.232C928.851 558.624 919.613 567.861 908.229 567.861C833.052 567.861 772.119 506.904 772.119 431.711C772.119 420.319 781.358 411.083 792.742 411.083C804.126 411.083 813.364 420.319 813.364 431.711Z" fill="#EDD500"/>
<path fill-rule="evenodd" clip-rule="evenodd" d="M792.742 451.161C781.358 451.161 772.119 441.925 772.119 430.532C772.119 419.14 781.358 409.904 792.742 409.904C804.126 409.904 813.364 419.14 813.364 430.532C813.364 441.925 804.126 451.161 792.742 451.161Z" fill="#FD6234"/>
<path fill-rule="evenodd" clip-rule="evenodd" d="M40.2554 348.649C40.2554 329.7 24.8468 314.338 5.83968 314.338C-13.1688 314.338 -28.5761 329.7 -28.5761 348.649C-28.5761 360.018 -37.8215 369.236 -49.2255 369.236C-60.6309 369.236 -69.875 360.018 -69.875 348.649C-69.875 306.96 -35.9768 273.165 5.83968 273.165C47.6548 273.165 81.5544 306.96 81.5544 348.649C81.5544 360.018 72.3089 369.236 60.9049 369.236C49.4995 369.236 40.2554 360.018 40.2554 348.649Z" fill="#EDD500"/>
<path fill-rule="evenodd" clip-rule="evenodd" d="M379.056 391.675C379.056 372.725 363.648 357.364 344.64 357.364C325.633 357.364 310.225 372.725 310.225 391.675C310.225 403.044 300.979 412.261 289.575 412.261C278.171 412.261 268.926 403.044 268.926 391.675C268.926 349.985 302.824 316.19 344.64 316.19C386.457 316.19 420.355 349.985 420.355 391.675C420.355 403.044 411.11 412.261 399.706 412.261C388.302 412.261 379.056 403.044 379.056 391.675Z" fill="#463C74"/>
<path fill-rule="evenodd" clip-rule="evenodd" d="M60.9313 369.236C49.5407 369.236 40.3086 360 40.3086 348.607C40.3086 337.215 49.5407 327.979 60.9313 327.979C72.3205 327.979 81.5539 337.215 81.5539 348.607C81.5539 360 72.3205 369.236 60.9313 369.236Z" fill="#FD6234"/>
<path fill-rule="evenodd" clip-rule="evenodd" d="M205.291 238.981C193.901 238.981 184.668 229.744 184.668 218.352C184.668 206.959 193.901 197.723 205.291 197.723C216.68 197.723 225.913 206.959 225.913 218.352C225.913 229.744 216.68 238.981 205.291 238.981Z" fill="#FD6234"/>
<path d="M714.334 -0.818798C640.532 -0.818798 580.705 59.0261 580.705 132.848C580.705 144.264 571.453 153.519 560.041 153.519C548.629 153.519 539.377 144.264 539.377 132.848C539.377 36.1944 617.708 -42.1592 714.334 -42.1592C725.746 -42.1592 734.998 -32.9049 734.998 -21.489C734.998 -10.0731 725.746 -0.818798 714.334 -0.818798Z" fill="#E5E0D5"/>
<path fill-rule="evenodd" clip-rule="evenodd" d="M353.841 145.267C330.535 145.267 311.417 164.291 311.417 188.035C311.417 211.777 330.535 230.801 353.841 230.801C438.535 230.801 506.97 299.765 506.97 384.56C506.97 395.952 497.721 405.189 486.313 405.189C474.905 405.189 465.656 395.952 465.656 384.56C465.656 322.304 415.472 272.058 353.841 272.058C307.472 272.058 270.104 234.316 270.104 188.035C270.104 141.752 307.472 104.01 353.841 104.01C365.251 104.01 374.498 113.246 374.498 124.638C374.498 136.031 365.251 145.267 353.841 145.267Z" fill="#EDD500"/>
<path fill-rule="evenodd" clip-rule="evenodd" d="M465.136 384.606C465.136 447.23 415.076 497.63 353.773 497.63C342.384 497.63 333.15 506.887 333.15 518.305C333.15 529.723 342.384 538.98 353.773 538.98C438.257 538.98 506.381 469.662 506.381 384.606C506.381 373.188 497.147 363.931 485.758 363.931C474.369 363.931 465.136 373.188 465.136 384.606Z" fill="#FD6234"/>
<path fill-rule="evenodd" clip-rule="evenodd" d="M205.291 259.609C216.68 259.609 225.913 268.859 225.913 280.269V369.794C225.913 381.204 216.68 390.454 205.291 390.454C193.901 390.454 184.668 381.204 184.668 369.794V280.269C184.668 268.859 193.901 259.609 205.291 259.609Z" fill="#B4D51E"/>
<path d="M546.449 187.703C546.449 199.096 537.198 208.332 525.788 208.332H350.865C339.455 208.332 330.205 199.096 330.205 187.703C330.205 176.311 339.455 167.075 350.865 167.075H525.788C537.198 167.075 546.449 176.311 546.449 187.703Z" fill="#E5E0D5"/>
<path fill-rule="evenodd" clip-rule="evenodd" d="M364.82 81.4646C356.766 89.521 343.708 89.521 335.656 81.4646C327.602 73.4086 327.602 60.3475 335.656 52.2915C343.708 44.2355 356.766 44.2355 364.82 52.2915C372.874 60.3475 372.874 73.4086 364.82 81.4646Z" fill="#463C74"/>
<path fill-rule="evenodd" clip-rule="evenodd" d="M289.58 90.3891C254.706 90.3891 226.436 118.668 226.436 153.551C226.436 164.926 217.217 174.147 205.846 174.147C194.473 174.147 185.256 164.926 185.256 153.551C185.256 95.9172 231.963 49.1965 289.58 49.1965C300.951 49.1965 310.17 58.4178 310.17 69.7928C310.17 81.1679 300.951 90.3891 289.58 90.3891Z" fill="#FD6234"/>
<path fill-rule="evenodd" clip-rule="evenodd" d="M546.448 187.6C546.506 198.992 537.32 208.275 525.93 208.332C514.54 208.39 505.261 199.201 505.203 187.807C505.146 176.414 514.333 167.133 525.722 167.075C537.111 167.017 546.392 176.207 546.448 187.6Z" fill="#FD6234"/>
<path fill-rule="evenodd" clip-rule="evenodd" d="M546.448 -19.8667C546.506 -8.47386 537.32 0.808501 525.93 0.865986C514.54 0.923609 505.261 -8.26537 505.203 -19.6582C505.146 -31.0509 514.333 -40.3332 525.722 -40.3908C537.111 -40.4485 546.392 -31.2593 546.448 -19.8667Z" fill="#FD6234"/>
<path fill-rule="evenodd" clip-rule="evenodd" d="M546.448 34.9468C546.506 46.3396 537.32 55.622 525.93 55.6795C514.54 55.7371 505.261 46.5481 505.203 35.1553C505.146 23.7626 514.333 14.4803 525.722 14.4226C537.111 14.365 546.392 23.5541 546.448 34.9468Z" fill="#FD6234"/>
<path fill-rule="evenodd" clip-rule="evenodd" d="M748.498 132.595C748.498 113.582 733.089 98.1693 714.082 98.1693C695.075 98.1693 679.666 113.582 679.666 132.595C679.666 151.608 695.075 167.021 714.082 167.021C725.486 167.021 734.731 176.269 734.731 187.676C734.731 199.084 725.486 208.332 714.082 208.332C672.265 208.332 638.367 174.424 638.367 132.595C638.367 90.7664 672.265 56.8584 714.082 56.8584C755.898 56.8584 789.797 90.7664 789.797 132.595C789.797 144.002 780.546 153.251 769.147 153.251C757.743 153.251 748.498 144.002 748.498 132.595Z" fill="#463C74"/>
<path d="M854.652 -9.68905C835.704 -9.68905 820.351 5.72393 820.351 24.7367C820.351 43.7496 835.704 59.1625 854.652 59.1625C866.012 59.1625 875.232 68.4103 875.232 79.818C875.232 91.2253 866.012 100.473 854.652 100.473C812.969 100.473 779.189 66.565 779.189 24.7367C779.189 -17.0916 812.969 -51 854.652 -51C866.012 -51 875.232 -41.7522 875.232 -30.3445C875.232 -18.9368 866.012 -9.68905 854.652 -9.68905Z" fill="#E5E0D5"/>
<path fill-rule="evenodd" clip-rule="evenodd" d="M736.177 187.703C736.177 199.096 726.944 208.332 715.554 208.332C704.165 208.332 694.932 199.096 694.932 187.703C694.932 176.311 704.165 167.075 715.554 167.075C726.944 167.075 736.177 176.311 736.177 187.703Z" fill="#FD6234"/>
<path fill-rule="evenodd" clip-rule="evenodd" d="M791.564 187.703C791.564 199.096 782.325 208.332 770.941 208.332C759.552 208.332 750.318 199.096 750.318 187.703C750.318 176.311 759.552 167.075 770.941 167.075C782.325 167.075 791.564 176.311 791.564 187.703Z" fill="#463C74"/>
<path fill-rule="evenodd" clip-rule="evenodd" d="M846.361 187.703C846.361 199.096 837.122 208.332 825.738 208.332C814.354 208.332 805.115 199.096 805.115 187.703C805.115 176.311 814.354 167.075 825.738 167.075C837.122 167.075 846.361 176.311 846.361 187.703Z" fill="#463C74"/>
<path fill-rule="evenodd" clip-rule="evenodd" d="M878.179 23.8528C878.179 35.2458 868.94 44.4815 857.556 44.4815C846.173 44.4815 836.934 35.2458 836.934 23.8528C836.934 12.4599 846.173 3.22412 857.556 3.22412C868.94 3.22412 878.179 12.4599 878.179 23.8528Z" fill="#FD6234"/>
</g>
</g>
</svg>
