<svg width="858" height="517" viewBox="0 0 858 517" fill="none" xmlns="http://www.w3.org/2000/svg">
<mask id="mask0_848_2417" style="mask-type:alpha" maskUnits="userSpaceOnUse" x="4" y="0" width="850" height="509">
<rect x="4" width="850" height="509" rx="10" fill="white"/>
</mask>
<g mask="url(#mask0_848_2417)">
<g opacity="0.4">
<path d="M-31.6429 492.086C-6.25822 492.086 14.1524 472.447 14.1524 448.418C14.1524 424.388 -6.25822 404.75 -31.6429 404.75C-45.6667 404.75 -58.1798 410.733 -66.5996 420.206C-74.0118 428.545 -87.0612 429.536 -95.7455 422.419C-104.431 415.303 -105.464 402.774 -98.0514 394.436C-82.0857 376.474 -58.2377 365.051 -31.6429 365.051C16.3934 365.051 55.5 402.287 55.5 448.418C55.5 494.549 16.3934 531.784 -31.6429 531.784C-43.0604 531.784 -52.3167 522.897 -52.3167 511.935C-52.3167 500.973 -43.0604 492.086 -31.6429 492.086Z" fill="#E5E0D5"/>
<path fill-rule="evenodd" clip-rule="evenodd" d="M296.374 -18.6966C309.815 -31.5974 309.815 -52.5138 296.374 -65.4145C282.934 -78.3153 261.144 -78.3153 247.703 -65.4145C234.263 -52.5138 234.263 -31.5974 247.703 -18.6966C255.768 -10.9563 255.768 1.59406 247.703 9.33338C239.639 17.074 226.564 17.074 218.501 9.33338C188.932 -19.0477 188.932 -65.0634 218.501 -93.4452C248.068 -121.827 296.008 -121.827 325.577 -93.4452C355.146 -65.0634 355.146 -19.0477 325.577 9.33338C317.513 17.074 304.439 17.074 296.374 9.33338C288.31 1.59406 288.31 -10.9563 296.374 -18.6966Z" fill="#463C74"/>
<path fill-rule="evenodd" clip-rule="evenodd" d="M219.452 -18.1788C227.505 -25.9303 240.562 -25.9303 248.616 -18.1788C256.67 -10.4272 256.67 2.14043 248.616 9.89214C240.562 17.6438 227.505 17.6438 219.452 9.89214C211.398 2.14043 211.398 -10.4272 219.452 -18.1788Z" fill="#FD6234"/>
<path d="M115.601 515.905C115.601 566.333 158.073 607.212 210.465 607.212C221.854 607.212 231.088 616.099 231.088 627.061C231.088 638.023 221.854 646.91 210.465 646.91C135.294 646.91 74.3555 588.257 74.3555 515.905C74.3555 504.943 83.5889 496.056 94.9781 496.056C106.367 496.056 115.601 504.943 115.601 515.905Z" fill="#E5E0D5"/>
<path fill-rule="evenodd" clip-rule="evenodd" d="M732.47 44.6083C732.47 -22.6979 675.781 -77.2603 605.852 -77.2603C594.451 -77.2603 585.208 -86.1563 585.208 -97.1301C585.208 -108.104 594.451 -117 605.852 -117C698.584 -117 773.758 -44.6455 773.758 44.6083C773.758 55.5818 764.515 64.4782 753.114 64.4782C741.713 64.4782 732.47 55.5818 732.47 44.6083Z" fill="#B4D51E"/>
<path fill-rule="evenodd" clip-rule="evenodd" d="M88.4963 421.763C88.4963 369.143 44.1782 326.487 -10.4926 326.487C-21.8818 326.487 -31.1152 317.6 -31.1152 306.638C-31.1152 295.676 -21.8818 286.789 -10.4926 286.789C66.9566 286.789 129.742 347.219 129.742 421.763C129.742 432.725 120.508 441.613 109.119 441.613C97.7298 441.613 88.4963 432.725 88.4963 421.763Z" fill="#EDD500"/>
<path fill-rule="evenodd" clip-rule="evenodd" d="M94.9781 535.754C83.5889 535.754 74.3555 526.867 74.3555 515.905C74.3555 504.943 83.5889 496.056 94.9781 496.056C106.367 496.056 115.601 504.943 115.601 515.905C115.601 526.867 106.367 535.754 94.9781 535.754Z" fill="#FD6234"/>
<path fill-rule="evenodd" clip-rule="evenodd" d="M301.794 112.116C301.794 123.078 311.039 131.965 322.447 131.965C341.457 131.965 356.868 146.777 356.868 165.047V297.375C356.868 315.646 341.457 330.457 322.447 330.457C311.039 330.457 301.794 339.344 301.794 350.306C301.794 361.268 311.039 370.156 322.447 370.156C344.146 370.156 363.714 361.384 377.521 347.328C391.326 361.384 410.895 370.156 432.595 370.156H495.93C537.753 370.156 571.656 337.571 571.656 297.375C571.656 286.413 562.409 277.526 551.004 277.526C539.598 277.526 530.351 286.413 530.351 297.375C530.351 315.646 514.94 330.457 495.93 330.457H432.595C413.584 330.457 398.173 315.646 398.173 297.375V165.047C398.173 124.851 364.268 92.2671 322.447 92.2671C311.039 92.2671 301.794 101.154 301.794 112.116Z" fill="#4A990C"/>
<path d="M343.039 350.433C343.039 339.466 333.794 330.575 322.391 330.575C303.384 330.575 287.976 315.756 287.976 297.476V165.083C287.976 146.804 303.384 131.985 322.391 131.985C333.794 131.985 343.039 123.093 343.039 112.126C343.039 101.159 333.794 92.2671 322.391 92.2671C280.575 92.2671 246.678 124.868 246.678 165.083V297.476C246.678 299.106 246.733 300.723 246.844 302.324C212.477 312.443 187.485 343.194 187.485 379.56V456.348C187.485 467.315 196.73 476.207 208.134 476.207C219.538 476.207 228.783 467.315 228.783 456.348V379.56C228.783 360.438 242.381 344.37 260.783 339.813C274.518 358.266 296.994 370.292 322.391 370.292C333.794 370.292 343.039 361.401 343.039 350.433Z" fill="#E5E0D5"/>
<path fill-rule="evenodd" clip-rule="evenodd" d="M322.122 370.207C303.113 370.207 287.706 385.038 287.706 403.332C287.706 421.626 303.113 436.457 322.122 436.457C341.129 436.457 356.538 421.626 356.538 403.332C356.538 392.356 365.782 383.457 377.187 383.457C388.591 383.457 397.837 392.356 397.837 403.332C397.837 443.58 363.937 476.207 322.122 476.207C280.305 476.207 246.407 443.58 246.407 403.332C246.407 363.084 280.305 330.457 322.122 330.457C333.526 330.457 342.771 339.356 342.771 350.332C342.771 361.308 333.526 370.207 322.122 370.207Z" fill="#463C74"/>
<path d="M819.183 503.712C819.183 485.418 834.591 470.587 853.598 470.587C872.606 470.587 888.014 485.418 888.014 503.712C888.014 522.006 872.606 536.837 853.598 536.837C842.194 536.837 832.949 545.735 832.949 556.712C832.949 567.688 842.194 576.587 853.598 576.587C895.415 576.587 929.313 543.96 929.313 503.712C929.313 463.464 895.415 430.837 853.598 430.837C811.782 430.837 777.884 463.464 777.884 503.712C777.884 514.688 787.129 523.587 798.533 523.587C809.937 523.587 819.183 514.688 819.183 503.712Z" fill="#E5E0D5"/>
<path fill-rule="evenodd" clip-rule="evenodd" d="M322.417 370.156C311.026 370.156 301.794 361.268 301.794 350.306C301.794 339.344 311.026 330.457 322.417 330.457C333.806 330.457 343.039 339.344 343.039 350.306C343.039 361.268 333.806 370.156 322.417 370.156Z" fill="#FD6234"/>
<path fill-rule="evenodd" clip-rule="evenodd" d="M322.417 131.965C311.026 131.965 301.794 123.078 301.794 112.116C301.794 101.154 311.026 92.2671 322.417 92.2671C333.806 92.2671 343.039 101.154 343.039 112.116C343.039 123.078 333.806 131.965 322.417 131.965Z" fill="#FD6234"/>
<path fill-rule="evenodd" clip-rule="evenodd" d="M209.287 528.949C197.898 528.949 188.664 520.062 188.664 509.1C188.664 498.138 197.898 489.25 209.287 489.25C220.676 489.25 229.909 498.138 229.909 509.1C229.909 520.062 220.676 528.949 209.287 528.949Z" fill="#463C74"/>
<path fill-rule="evenodd" clip-rule="evenodd" d="M766.188 142.316C789.675 151.508 816.274 140.726 825.712 118.49C835.149 96.2537 823.977 70.6894 800.491 61.4981C787.514 56.4204 773.585 57.4267 762.075 63.143C751.941 68.1757 739.478 64.3675 734.237 54.6379C728.996 44.9084 732.962 32.9415 743.095 27.9088C764.922 17.0685 791.475 15.1326 816.082 24.763C860.528 42.1553 882.088 90.774 863.969 133.461C845.851 176.149 795.041 196.445 750.596 179.053C740.032 174.918 734.957 163.342 739.263 153.199C743.568 143.054 755.623 138.183 766.188 142.316Z" fill="#EDD500"/>
<path fill-rule="evenodd" clip-rule="evenodd" d="M301.741 257.339C301.741 239.106 286.332 224.325 267.325 224.325C248.317 224.325 232.909 239.106 232.909 257.339C232.909 268.279 223.664 277.148 212.26 277.148C200.854 277.148 191.61 268.279 191.61 257.339C191.61 217.225 225.509 184.708 267.325 184.708C309.14 184.708 343.04 217.225 343.04 257.339C343.04 268.279 333.794 277.148 322.39 277.148C310.985 277.148 301.741 268.279 301.741 257.339Z" fill="#EDD500"/>
<path fill-rule="evenodd" clip-rule="evenodd" d="M640.542 298.739C640.542 280.506 625.133 265.725 606.126 265.725C587.119 265.725 571.71 280.506 571.71 298.739C571.71 309.679 562.465 318.548 551.061 318.548C539.657 318.548 530.411 309.679 530.411 298.739C530.411 258.625 564.309 226.107 606.126 226.107C647.942 226.107 681.84 258.625 681.84 298.739C681.84 309.679 672.595 318.548 661.191 318.548C649.787 318.548 640.542 309.679 640.542 298.739Z" fill="#463C74"/>
<path fill-rule="evenodd" clip-rule="evenodd" d="M330.689 516.994C391.503 516.994 440.803 469.544 440.803 411.011C440.803 400.036 450.047 391.139 461.449 391.139C472.851 391.139 482.095 400.036 482.095 411.011C482.095 491.493 414.308 556.738 330.689 556.738C319.287 556.738 310.043 547.84 310.043 536.866C310.043 525.891 319.287 516.994 330.689 516.994Z" fill="#B4D51E"/>
<path fill-rule="evenodd" clip-rule="evenodd" d="M322.417 277.148C311.026 277.148 301.794 268.261 301.794 257.299C301.794 246.337 311.026 237.449 322.417 237.449C333.806 237.449 343.039 246.337 343.039 257.299C343.039 268.261 333.806 277.148 322.417 277.148Z" fill="#FD6234"/>
<path fill-rule="evenodd" clip-rule="evenodd" d="M466.775 151.815C455.386 151.815 446.152 142.928 446.152 131.966C446.152 121.004 455.386 112.116 466.775 112.116C478.164 112.116 487.398 121.004 487.398 131.966C487.398 142.928 478.164 151.815 466.775 151.815Z" fill="#FD6234"/>
<path fill-rule="evenodd" clip-rule="evenodd" d="M726.584 509.099C700.345 509.099 678.379 530.055 678.379 556.737C678.379 583.42 700.345 604.376 726.584 604.376C737.994 604.376 747.244 613.263 747.244 624.225C747.244 635.187 737.994 644.074 726.584 644.074C676.757 644.074 637.06 604.599 637.06 556.737C637.06 508.876 676.757 469.401 726.584 469.401C737.994 469.401 747.244 478.288 747.244 489.25C747.244 500.212 737.994 509.099 726.584 509.099Z" fill="#EDD500"/>
<path d="M367.787 587.362C454.347 587.362 524.519 519.822 524.519 436.508C524.519 425.546 533.753 416.659 545.142 416.659C556.531 416.659 565.764 425.546 565.764 436.508C565.764 541.747 477.127 627.06 367.787 627.06C356.398 627.06 347.164 618.173 347.164 607.211C347.164 596.249 356.398 587.362 367.787 587.362Z" fill="#E5E0D5"/>
<path fill-rule="evenodd" clip-rule="evenodd" d="M611.134 518.173C611.134 529.135 601.901 538.023 590.511 538.023C579.122 538.023 569.889 529.135 569.889 518.173C569.889 507.211 579.122 498.324 590.511 498.324C601.901 498.324 611.134 507.211 611.134 518.173Z" fill="#FD6234"/>
<path fill-rule="evenodd" clip-rule="evenodd" d="M99.3972 -8.73187C80.3901 -8.73187 64.9814 -23.5624 64.9814 -41.8568C64.9814 -60.1512 80.3901 -74.9817 99.3972 -74.9817C118.404 -74.9817 133.813 -60.1512 133.813 -41.8568C133.813 -23.5624 118.404 -8.73187 99.3972 -8.73187ZM23.6826 -41.8566C23.6826 -1.60891 57.5808 31.0182 99.3973 31.0182C141.214 31.0182 175.112 -1.60891 175.112 -41.8566C175.112 -82.1042 141.214 -114.731 99.3973 -114.731C57.5808 -114.731 23.6826 -82.1043 23.6826 -41.8566Z" fill="#EDD500"/>
<path fill-rule="evenodd" clip-rule="evenodd" d="M113.243 262.97C113.243 252.008 104.01 243.121 92.6207 243.121C81.2315 243.121 71.998 252.008 71.998 262.97C71.998 273.932 81.2315 282.819 92.6207 282.819C104.01 282.819 113.243 273.932 113.243 262.97Z" fill="#4A990C"/>
<path fill-rule="evenodd" clip-rule="evenodd" d="M169.809 260.134C169.809 249.172 160.575 240.285 149.186 240.285C137.797 240.285 128.563 249.172 128.563 260.134C128.563 271.096 137.797 279.984 149.186 279.984C160.575 279.984 169.809 271.096 169.809 260.134Z" fill="#463C74"/>
<path fill-rule="evenodd" clip-rule="evenodd" d="M169.809 315.712C169.809 304.75 160.575 295.863 149.186 295.863C137.797 295.863 128.563 304.75 128.563 315.712C128.563 326.674 137.797 335.561 149.186 335.561C160.575 335.561 169.809 326.674 169.809 315.712Z" fill="#463C74"/>
<path fill-rule="evenodd" clip-rule="evenodd" d="M615.328 61.6424C592.021 61.6424 572.904 79.9473 572.904 102.794C572.904 125.639 592.021 143.944 615.328 143.944C700.021 143.944 768.456 210.302 768.456 291.893C768.456 302.855 759.207 311.742 747.799 311.742C736.391 311.742 727.142 302.855 727.142 291.893C727.142 231.989 676.958 183.642 615.328 183.642C568.958 183.642 531.59 147.326 531.59 102.794C531.59 58.2601 568.958 21.9441 615.328 21.9441C626.737 21.9441 635.984 30.8312 635.984 41.7933C635.984 52.7553 626.737 61.6424 615.328 61.6424Z" fill="#EDD500"/>
<path fill-rule="evenodd" clip-rule="evenodd" d="M726.621 291.938C726.621 352.195 676.561 400.69 615.258 400.69C603.869 400.69 594.636 409.598 594.636 420.584C594.636 431.571 603.869 440.478 615.258 440.478C699.743 440.478 767.866 373.779 767.866 291.938C767.866 280.951 758.633 272.044 747.244 272.044C735.854 272.044 726.621 280.951 726.621 291.938Z" fill="#FD6234"/>
<path fill-rule="evenodd" clip-rule="evenodd" d="M747.244 311.742C735.855 311.742 726.621 302.855 726.621 291.893C726.621 280.931 735.855 272.044 747.244 272.044C758.633 272.044 767.866 280.931 767.866 291.893C767.866 302.855 758.633 311.742 747.244 311.742Z" fill="#463C74"/>
<path fill-rule="evenodd" clip-rule="evenodd" d="M466.775 171.664C478.164 171.664 487.398 180.564 487.398 191.543V277.685C487.398 288.664 478.164 297.564 466.775 297.564C455.386 297.564 446.152 288.664 446.152 277.685V191.543C446.152 180.564 455.386 171.664 466.775 171.664Z" fill="#B4D51E"/>
<path fill-rule="evenodd" clip-rule="evenodd" d="M128.523 59.9604C128.523 133.846 66.2929 193.742 -10.4724 193.742C-21.8727 193.742 -31.1152 202.638 -31.1152 213.611C-31.1152 224.584 -21.8727 233.479 -10.4724 233.479C89.0936 233.479 169.809 155.792 169.809 59.9604C169.809 48.9876 160.566 40.0918 149.166 40.0918C137.765 40.0918 128.523 48.9876 128.523 59.9604Z" fill="#B4D51E"/>
<path d="M807.934 102.475C807.934 113.437 798.684 122.324 787.274 122.324H612.351C600.941 122.324 591.69 113.437 591.69 102.475C591.69 91.5131 600.941 82.626 612.351 82.626H787.274C798.684 82.626 807.934 91.5131 807.934 102.475Z" fill="#E5E0D5"/>
<path fill-rule="evenodd" clip-rule="evenodd" d="M169.809 59.941C169.809 48.9789 160.575 40.0918 149.186 40.0918C137.797 40.0918 128.563 48.9789 128.563 59.941C128.563 70.903 137.797 79.7901 149.186 79.7901C160.575 79.7901 169.809 70.903 169.809 59.941Z" fill="#FD6234"/>
<path fill-rule="evenodd" clip-rule="evenodd" d="M766.54 59.7983C758.486 67.5501 745.428 67.5501 737.375 59.7983C729.322 52.0466 729.322 39.4781 737.375 31.7276C745.428 23.9759 758.486 23.9759 766.54 31.7276C774.594 39.4781 774.594 52.0466 766.54 59.7983Z" fill="#463C74"/>
<path fill-rule="evenodd" clip-rule="evenodd" d="M626.306 0.25108C618.252 8.00304 605.193 8.00304 597.141 0.25108C589.087 -7.50048 589.087 -20.0681 597.141 -27.8196C605.193 -35.5712 618.252 -35.5712 626.306 -27.8196C634.359 -20.0681 634.359 -7.50048 626.306 0.25108Z" fill="#463C74"/>
<path fill-rule="evenodd" clip-rule="evenodd" d="M551.066 8.83793C516.192 8.83793 487.923 36.0481 487.923 69.6132C487.923 80.558 478.704 89.4312 467.332 89.4312C455.96 89.4312 446.742 80.558 446.742 69.6132C446.742 14.1571 493.449 -30.7981 551.066 -30.7981C562.438 -30.7981 571.657 -21.9253 571.657 -10.9801C571.657 -0.0348571 562.438 8.83793 551.066 8.83793Z" fill="#FD6234"/>
<path fill-rule="evenodd" clip-rule="evenodd" d="M452.783 55.5467C460.835 47.795 473.893 47.795 481.947 55.5467C490.001 63.2985 490.001 75.8657 481.947 83.6174C473.893 91.3692 460.835 91.3692 452.783 83.6174C444.729 75.8657 444.729 63.2985 452.783 55.5467Z" fill="#463C74"/>
<path fill-rule="evenodd" clip-rule="evenodd" d="M807.934 102.375C807.991 113.337 798.806 122.27 787.415 122.324C776.026 122.38 766.746 113.539 766.689 102.575C766.631 91.6128 775.818 82.6818 787.207 82.6262C798.597 82.5707 807.877 91.413 807.934 102.375Z" fill="#FD6234"/>
</g>
</g>
</svg>
